<mxfile host="65bd71144e">
    <diagram id="ZUtNkP2NCniJzdi-Boyr" name="Page-1">
        <mxGraphModel dx="3948" dy="1660" grid="0" gridSize="10" guides="1" tooltips="1" connect="1" arrows="1" fold="1" page="1" pageScale="1" pageWidth="4681" pageHeight="3300" math="0" shadow="0">
            <root>
                <mxCell id="0"/>
                <mxCell id="1" parent="0"/>
                <mxCell id="61" value="APPLICATION LOGIC" style="shape=table;startSize=48;container=1;collapsible=0;childLayout=tableLayout;fontSize=18;" vertex="1" parent="1">
                    <mxGeometry x="300" y="110" width="2416" height="779" as="geometry"/>
                </mxCell>
                <mxCell id="62" value="" style="shape=tableRow;horizontal=0;startSize=0;swimlaneHead=0;swimlaneBody=0;top=0;left=0;bottom=0;right=0;collapsible=0;dropTarget=0;fillColor=none;points=[[0,0.5],[1,0.5]];portConstraint=eastwest;fontSize=18;" vertex="1" parent="61">
                    <mxGeometry y="48" width="2416" height="731" as="geometry"/>
                </mxCell>
                <mxCell id="63" value="" style="shape=partialRectangle;html=1;whiteSpace=wrap;connectable=0;overflow=hidden;fillColor=none;top=0;left=0;bottom=0;right=0;pointerEvents=1;fontSize=18;" vertex="1" parent="62">
                    <mxGeometry width="2416" height="731" as="geometry">
                        <mxRectangle width="2416" height="731" as="alternateBounds"/>
                    </mxGeometry>
                </mxCell>
                <mxCell id="54" value="PROJECTS FACTORY" style="shape=table;startSize=30;container=1;collapsible=0;childLayout=tableLayout;fontSize=18;" vertex="1" parent="1">
                    <mxGeometry x="1114" y="240" width="500" height="483" as="geometry"/>
                </mxCell>
                <mxCell id="55" value="" style="shape=tableRow;horizontal=0;startSize=0;swimlaneHead=0;swimlaneBody=0;top=0;left=0;bottom=0;right=0;collapsible=0;dropTarget=0;fillColor=none;points=[[0,0.5],[1,0.5]];portConstraint=eastwest;fontSize=18;" vertex="1" parent="54">
                    <mxGeometry y="30" width="500" height="453" as="geometry"/>
                </mxCell>
                <mxCell id="56" value="" style="shape=partialRectangle;html=1;whiteSpace=wrap;connectable=0;overflow=hidden;fillColor=none;top=0;left=0;bottom=0;right=0;pointerEvents=1;fontSize=18;" vertex="1" parent="55">
                    <mxGeometry width="500" height="453" as="geometry">
                        <mxRectangle width="500" height="453" as="alternateBounds"/>
                    </mxGeometry>
                </mxCell>
                <mxCell id="42" value="TODO LIST OBJECTS - APPLICATION LOGIC" style="shape=table;startSize=48;container=1;collapsible=0;childLayout=tableLayout;fontSize=18;" vertex="1" parent="1">
                    <mxGeometry x="1922" y="193" width="735" height="641.5" as="geometry"/>
                </mxCell>
                <mxCell id="43" value="" style="shape=tableRow;horizontal=0;startSize=0;swimlaneHead=0;swimlaneBody=0;top=0;left=0;bottom=0;right=0;collapsible=0;dropTarget=0;fillColor=none;points=[[0,0.5],[1,0.5]];portConstraint=eastwest;fontSize=18;" vertex="1" parent="42">
                    <mxGeometry y="48" width="735" height="594" as="geometry"/>
                </mxCell>
                <mxCell id="44" value="" style="shape=partialRectangle;html=1;whiteSpace=wrap;connectable=0;overflow=hidden;fillColor=none;top=0;left=0;bottom=0;right=0;pointerEvents=1;fontSize=18;" vertex="1" parent="43">
                    <mxGeometry width="735" height="594" as="geometry">
                        <mxRectangle width="735" height="594" as="alternateBounds"/>
                    </mxGeometry>
                </mxCell>
                <mxCell id="18" value="TODO Factory" style="shape=table;startSize=30;container=1;collapsible=0;childLayout=tableLayout;fontSize=18;" vertex="1" parent="1">
                    <mxGeometry x="1951" y="365.5" width="300" height="404" as="geometry"/>
                </mxCell>
                <mxCell id="19" value="" style="shape=tableRow;horizontal=0;startSize=0;swimlaneHead=0;swimlaneBody=0;top=0;left=0;bottom=0;right=0;collapsible=0;dropTarget=0;fillColor=none;points=[[0,0.5],[1,0.5]];portConstraint=eastwest;fontSize=18;" vertex="1" parent="18">
                    <mxGeometry y="30" width="300" height="374" as="geometry"/>
                </mxCell>
                <mxCell id="20" value="" style="shape=partialRectangle;html=1;whiteSpace=wrap;connectable=0;overflow=hidden;fillColor=none;top=0;left=0;bottom=0;right=0;pointerEvents=1;fontSize=18;" vertex="1" parent="19">
                    <mxGeometry width="300" height="374" as="geometry">
                        <mxRectangle width="300" height="374" as="alternateBounds"/>
                    </mxGeometry>
                </mxCell>
                <mxCell id="25" style="edgeStyle=none;html=1;exitX=1;exitY=0.5;exitDx=0;exitDy=0;fontSize=18;entryX=0;entryY=0.33;entryDx=0;entryDy=0;entryPerimeter=0;" edge="1" parent="1" source="2" target="21">
                    <mxGeometry relative="1" as="geometry">
                        <mxPoint x="2316" y="457.5" as="targetPoint"/>
                        <Array as="points">
                            <mxPoint x="2277" y="332.5"/>
                        </Array>
                    </mxGeometry>
                </mxCell>
                <mxCell id="29" style="edgeStyle=none;html=1;exitX=1;exitY=0.5;exitDx=0;exitDy=0;entryX=0;entryY=0.25;entryDx=0;entryDy=0;fontSize=18;" edge="1" parent="1" source="2" target="26">
                    <mxGeometry relative="1" as="geometry">
                        <Array as="points">
                            <mxPoint x="2286" y="434.5"/>
                        </Array>
                    </mxGeometry>
                </mxCell>
                <mxCell id="40" style="edgeStyle=none;html=1;exitX=1;exitY=0.5;exitDx=0;exitDy=0;entryX=-0.001;entryY=0.127;entryDx=0;entryDy=0;entryPerimeter=0;fontSize=18;" edge="1" parent="1" source="2" target="34">
                    <mxGeometry relative="1" as="geometry">
                        <Array as="points">
                            <mxPoint x="2286" y="541.5"/>
                        </Array>
                    </mxGeometry>
                </mxCell>
                <mxCell id="41" style="edgeStyle=none;html=1;exitX=1;exitY=0.5;exitDx=0;exitDy=0;entryX=0;entryY=0.25;entryDx=0;entryDy=0;fontSize=18;" edge="1" parent="1" source="2" target="37">
                    <mxGeometry relative="1" as="geometry">
                        <Array as="points">
                            <mxPoint x="2286" y="673.5"/>
                        </Array>
                    </mxGeometry>
                </mxCell>
                <mxCell id="2" value="&lt;font style=&quot;font-size: 18px;&quot;&gt;TODO OBJECT:&lt;br&gt;&lt;/font&gt;&lt;br&gt;PROPERTIES:&lt;br&gt;&lt;br&gt;Check Status&lt;br&gt;Title&lt;br&gt;Description&lt;br&gt;DueDate&lt;br&gt;Priority&lt;br&gt;&lt;br&gt;INHERITED FUNCTIONS:&lt;br&gt;&lt;br&gt;Check / Uncheck&lt;br&gt;Edit Text (for title and Description)&lt;br&gt;Edit Duedate&lt;br&gt;Edit Priority" style="whiteSpace=wrap;html=1;aspect=fixed;" vertex="1" parent="1">
                    <mxGeometry x="1962" y="437.5" width="276" height="276" as="geometry"/>
                </mxCell>
                <mxCell id="21" value="check uncheck function" style="shape=table;startSize=30;container=1;collapsible=0;childLayout=tableLayout;fontSize=18;" vertex="1" parent="1">
                    <mxGeometry x="2321" y="299.5" width="300" height="100" as="geometry"/>
                </mxCell>
                <mxCell id="22" value="" style="shape=tableRow;horizontal=0;startSize=0;swimlaneHead=0;swimlaneBody=0;top=0;left=0;bottom=0;right=0;collapsible=0;dropTarget=0;fillColor=none;points=[[0,0.5],[1,0.5]];portConstraint=eastwest;fontSize=18;" vertex="1" parent="21">
                    <mxGeometry y="30" width="300" height="70" as="geometry"/>
                </mxCell>
                <mxCell id="23" value="-set check / uncheck value" style="shape=partialRectangle;html=1;whiteSpace=wrap;connectable=0;overflow=hidden;fillColor=none;top=0;left=0;bottom=0;right=0;pointerEvents=1;fontSize=18;" vertex="1" parent="22">
                    <mxGeometry width="300" height="70" as="geometry">
                        <mxRectangle width="300" height="70" as="alternateBounds"/>
                    </mxGeometry>
                </mxCell>
                <mxCell id="26" value="edit text func." style="shape=table;startSize=30;container=1;collapsible=0;childLayout=tableLayout;fontSize=18;" vertex="1" parent="1">
                    <mxGeometry x="2321" y="409.5" width="300" height="100" as="geometry"/>
                </mxCell>
                <mxCell id="27" value="" style="shape=tableRow;horizontal=0;startSize=0;swimlaneHead=0;swimlaneBody=0;top=0;left=0;bottom=0;right=0;collapsible=0;dropTarget=0;fillColor=none;points=[[0,0.5],[1,0.5]];portConstraint=eastwest;fontSize=18;" vertex="1" parent="26">
                    <mxGeometry y="30" width="300" height="70" as="geometry"/>
                </mxCell>
                <mxCell id="28" value="-update text in description or title" style="shape=partialRectangle;html=1;whiteSpace=wrap;connectable=0;overflow=hidden;fillColor=none;top=0;left=0;bottom=0;right=0;pointerEvents=1;fontSize=18;" vertex="1" parent="27">
                    <mxGeometry width="300" height="70" as="geometry">
                        <mxRectangle width="300" height="70" as="alternateBounds"/>
                    </mxGeometry>
                </mxCell>
                <mxCell id="34" value="edit due date func." style="shape=table;startSize=30;container=1;collapsible=0;childLayout=tableLayout;fontSize=18;" vertex="1" parent="1">
                    <mxGeometry x="2321" y="528.5" width="300" height="100" as="geometry"/>
                </mxCell>
                <mxCell id="35" value="" style="shape=tableRow;horizontal=0;startSize=0;swimlaneHead=0;swimlaneBody=0;top=0;left=0;bottom=0;right=0;collapsible=0;dropTarget=0;fillColor=none;points=[[0,0.5],[1,0.5]];portConstraint=eastwest;fontSize=18;" vertex="1" parent="34">
                    <mxGeometry y="30" width="300" height="70" as="geometry"/>
                </mxCell>
                <mxCell id="36" value="-update due date&lt;br&gt;-format with date-fns" style="shape=partialRectangle;html=1;whiteSpace=wrap;connectable=0;overflow=hidden;fillColor=none;top=0;left=0;bottom=0;right=0;pointerEvents=1;fontSize=18;" vertex="1" parent="35">
                    <mxGeometry width="300" height="70" as="geometry">
                        <mxRectangle width="300" height="70" as="alternateBounds"/>
                    </mxGeometry>
                </mxCell>
                <mxCell id="37" value="edit priority func." style="shape=table;startSize=30;container=1;collapsible=0;childLayout=tableLayout;fontSize=18;" vertex="1" parent="1">
                    <mxGeometry x="2318" y="648.5" width="300" height="100" as="geometry"/>
                </mxCell>
                <mxCell id="38" value="" style="shape=tableRow;horizontal=0;startSize=0;swimlaneHead=0;swimlaneBody=0;top=0;left=0;bottom=0;right=0;collapsible=0;dropTarget=0;fillColor=none;points=[[0,0.5],[1,0.5]];portConstraint=eastwest;fontSize=18;" vertex="1" parent="37">
                    <mxGeometry y="30" width="300" height="70" as="geometry"/>
                </mxCell>
                <mxCell id="39" value="-change status of priority" style="shape=partialRectangle;html=1;whiteSpace=wrap;connectable=0;overflow=hidden;fillColor=none;top=0;left=0;bottom=0;right=0;pointerEvents=1;fontSize=18;" vertex="1" parent="38">
                    <mxGeometry width="300" height="70" as="geometry">
                        <mxRectangle width="300" height="70" as="alternateBounds"/>
                    </mxGeometry>
                </mxCell>
                <mxCell id="46" value="PROJECTS LIST OBJECT" style="shape=table;startSize=30;container=1;collapsible=0;childLayout=tableLayout;fontSize=18;" vertex="1" parent="1">
                    <mxGeometry x="1140" y="333" width="458.9999999999998" height="323" as="geometry"/>
                </mxCell>
                <mxCell id="47" value="" style="shape=tableRow;horizontal=0;startSize=0;swimlaneHead=0;swimlaneBody=0;top=0;left=0;bottom=0;right=0;collapsible=0;dropTarget=0;fillColor=none;points=[[0,0.5],[1,0.5]];portConstraint=eastwest;fontSize=18;" vertex="1" parent="46">
                    <mxGeometry y="30" width="458.9999999999998" height="293" as="geometry"/>
                </mxCell>
                <mxCell id="48" value="PROPERTIES:&lt;br&gt;&lt;br&gt;Title&lt;br&gt;Description&lt;br&gt;List of ToDo Objects (ordered)&lt;br&gt;&lt;br&gt;&lt;br&gt;FUNCTIONS:&lt;br&gt;add ToDo Object&lt;br&gt;delete ToDo Object&lt;br&gt;Move ToDo Object&lt;br&gt;Edit Text (title or Description)" style="shape=partialRectangle;html=1;whiteSpace=wrap;connectable=0;overflow=hidden;fillColor=none;top=0;left=0;bottom=0;right=0;pointerEvents=1;fontSize=18;" vertex="1" parent="47">
                    <mxGeometry width="459" height="293" as="geometry">
                        <mxRectangle width="459" height="293" as="alternateBounds"/>
                    </mxGeometry>
                </mxCell>
                <mxCell id="53" value="" style="shape=flexArrow;endArrow=classic;html=1;fontSize=18;" edge="1" parent="1">
                    <mxGeometry width="50" height="50" relative="1" as="geometry">
                        <mxPoint x="1617" y="510" as="sourcePoint"/>
                        <mxPoint x="1922" y="510" as="targetPoint"/>
                    </mxGeometry>
                </mxCell>
                <mxCell id="57" value="CANVAS" style="shape=table;startSize=48;container=1;collapsible=0;childLayout=tableLayout;fontSize=18;" vertex="1" parent="1">
                    <mxGeometry x="400" y="236" width="500" height="483" as="geometry"/>
                </mxCell>
                <mxCell id="58" value="" style="shape=tableRow;horizontal=0;startSize=0;swimlaneHead=0;swimlaneBody=0;top=0;left=0;bottom=0;right=0;collapsible=0;dropTarget=0;fillColor=none;points=[[0,0.5],[1,0.5]];portConstraint=eastwest;fontSize=18;" vertex="1" parent="57">
                    <mxGeometry y="48" width="500" height="435" as="geometry"/>
                </mxCell>
                <mxCell id="59" value="PROPERTIES:&lt;br&gt;List of Projects&lt;br&gt;List of Projects on Canvas&lt;br&gt;List of Projects on Sidebar&lt;br&gt;&lt;br&gt;FUNCTIONS:&lt;br&gt;remove project&lt;br&gt;add project&lt;br&gt;move project to canvas&lt;br&gt;remove project from canvas" style="shape=partialRectangle;html=1;whiteSpace=wrap;connectable=0;overflow=hidden;fillColor=none;top=0;left=0;bottom=0;right=0;pointerEvents=1;fontSize=18;" vertex="1" parent="58">
                    <mxGeometry width="500" height="435" as="geometry">
                        <mxRectangle width="500" height="435" as="alternateBounds"/>
                    </mxGeometry>
                </mxCell>
                <mxCell id="60" value="" style="shape=flexArrow;endArrow=classic;html=1;fontSize=18;" edge="1" parent="1">
                    <mxGeometry width="50" height="50" relative="1" as="geometry">
                        <mxPoint x="900" y="488" as="sourcePoint"/>
                        <mxPoint x="1106" y="488" as="targetPoint"/>
                    </mxGeometry>
                </mxCell>
            </root>
        </mxGraphModel>
    </diagram>
</mxfile>